<svg class="svg-icon" style="width: 1em; height: 1em;vertical-align: middle;fill: currentColor;overflow: hidden;" viewBox="0 0 1024 1024" version="1.1" xmlns="http://www.w3.org/2000/svg"><path d="M870.4 448a64 64 0 0 0 0-128h-114.56l26.88-148.48a64 64 0 0 0-126.08-23.04l-32 171.52h-156.8l26.88-148.48a64 64 0 0 0-126.08-23.04l-32 171.52H198.4a64 64 0 1 0 0 128h116.16l-23.36 128H153.6a64 64 0 0 0 0 128h114.56l-26.88 148.48a64 64 0 1 0 126.08 23.04l32-171.52h157.76l-26.88 148.48a64 64 0 1 0 126.08 23.04l32-171.52h137.28a64 64 0 1 0 0-128h-116.16l23.36-128z m-291.2 128h-157.76l23.36-128h157.76z" fill="#231F20" /></svg>